<svg xmlns="http://www.w3.org/2000/svg" viewBox="0 0 64 64" fill='currentColor'><path d="M32,1C14.906,1,1,14.906,1,32s13.906,31,31,31,31-13.906,31-31S49.094,1,32,1Zm0,60.062c-16.025,0-29.062-13.037-29.062-29.062S15.975,2.938,32,2.938s29.062,13.037,29.062,29.062-13.037,29.062-29.062,29.062Z"  class="color000 svgShape"></path><path d="M31.387 19.753h1.226c2.457 0 4.457-1.999 4.457-4.457v-1.226c0-2.457-1.999-4.457-4.457-4.457h-1.226c-2.457 0-4.457 1.999-4.457 4.457v1.226c0 2.457 1.999 4.457 4.457 4.457zm-2.519-5.683c0-1.389 1.13-2.519 2.519-2.519h1.226c1.389 0 2.519 1.13 2.519 2.519v1.226c0 1.389-1.13 2.519-2.519 2.519h-1.226c-1.389 0-2.519-1.13-2.519-2.519v-1.226zM39.916 46.649l-2.511 1.278c-.522.265-1.114.213-1.58-.144-.466-.356-.674-.911-.556-1.486l3.894-18.9c.26-1.261-.058-2.556-.871-3.553s-2.017-1.57-3.305-1.57h-11.32c-1.396 0-2.532 1.136-2.532 2.532 0 1.314 1.026 2.423 2.337 2.525l1.762.136c.372.029.701.208.928.504s.313.661.244 1.027l-3.528 18.676c-.014.095-.326 2.339 1.314 4.208 1.378 1.571 3.653 2.367 6.764 2.367.105 0 .212 0 .319-.002 7.926-.135 10.653-3.666 11.299-4.744.371-.618.386-1.393.039-2.024-.53-.965-1.715-1.33-2.697-.831zm-8.674 5.661c-2.67.049-4.538-.521-5.575-1.683-1.054-1.183-.879-2.614-.879-2.63l3.522-18.639c.171-.902-.051-1.837-.609-2.565-.558-.729-1.403-1.187-2.317-1.258l-1.762-.136c-.308-.024-.549-.284-.549-.593 0-.328.267-.595.595-.595h11.32c.702 0 1.359.312 1.803.856.443.544.617 1.251.475 1.939l-3.894 18.9c-.268 1.302.222 2.611 1.279 3.417 1.057.807 2.45.933 3.634.33l2.511-1.278c.044-.021.096-.005.118.131-.368.614-2.565 3.682-9.671 3.804z"  class="color000 svgShape"></path></svg>