<svg xmlns="http://www.w3.org/2000/svg" fill="currentColor" viewBox="0 0 32 32" ><path d="M10.99 16.66c-4.808 1.062-8.293 5.408-8.288 10.332A4.021 4.021 0 0 0 6.722 31h18.557a4.021 4.021 0 0 0 4.019-4.008c.005-4.924-3.48-9.27-8.288-10.332-.13-.03-.262-.127-.262-.282 0-.097.032-.155.043-.166 1.9-1.625 2.988-4.067 2.988-6.7C23.78 4.819 20.29 1 16 1S8.22 4.818 8.22 9.513c0 2.632 1.09 5.074 2.989 6.699.011.01.043.07.043.166 0 .155-.132.253-.262.282zm2.107-2.654c-1.254-1.073-1.973-2.71-1.973-4.493 0-3.094 2.187-5.61 4.876-5.61s4.876 2.516 4.876 5.61c0 1.782-.72 3.42-1.973 4.494-.673.575-1.058 1.44-1.058 2.37 0 1.505 1.044 2.787 2.538 3.118 3.487.77 6.016 3.922 6.012 7.495 0 .61-.502 1.107-1.116 1.107H6.72a1.114 1.114 0 0 1-1.116-1.107c-.003-3.573 2.525-6.725 6.012-7.496 1.494-.33 2.538-1.612 2.538-3.116 0-.931-.385-1.796-1.058-2.372z"  class="color000 svgShape"></path></svg>