<svg xmlns="http://www.w3.org/2000/svg" fill="currentColor" enable-background="new 0 0 48 48" viewBox="0 0 48 48" width="256" height="256"><path  stroke="#000" stroke-linecap="round" stroke-linejoin="round" stroke-miterlimit="10" stroke-width="1.5" d="
			M34.6,1.9l6.8,6.8c0.8,0.8,1.2,1.8,1.2,2.9v31.6c0,2.2-1.8,4-4,4H9.5c-2.2,0-4-1.8-4-4V4.8c0-2.2,1.8-4,4-4h22.3
			C32.8,0.8,33.9,1.2,34.6,1.9z" class="colorStroke000 svgStroke"></path><path  stroke="#000" stroke-linecap="round" stroke-linejoin="round" stroke-miterlimit="10" stroke-width="1.5" d="M41.6 9.9h-6.1c-1.1 0-2-.9-2-2V1.8M33.5 41.6c1.2 0 2.4 0 3.6 0M29.2 23.8c2.7 0 5.3 0 8 0M10.9 23.8c5 0 9.9 0 14.9 0" class="colorStroke000 svgStroke"></path><line x1="10.9" x2="37.1" y1="28.3" y2="28.3"  stroke="#000" stroke-linecap="round" stroke-linejoin="round" stroke-miterlimit="10" stroke-width="1.5" class="colorStroke000 svgStroke"></line><path  stroke="#000" stroke-linecap="round" stroke-linejoin="round" stroke-miterlimit="10" stroke-width="1.5" d="M29.8 32.7c2.4 0 4.9 0 7.3 0M10.9 32.7c5.1 0 10.2 0 15.2 0M24.7 37.2c4.1 0 8.3 0 12.4 0M10.9 37.2c3.4 0 6.9 0 10.3 0M10.9 41.6c6.3 0 12.6 0 18.9 0M30.7 15.1c2.7 0 3.8 0 6.5 0M25.5 15.1c5 0-3.2 0 1.8 0" class="colorStroke000 svgStroke"></path><line x1="25.5" x2="37.1" y1="19.6" y2="19.6"  stroke="#000" stroke-linecap="round" stroke-linejoin="round" stroke-miterlimit="10" stroke-width="1.5" class="colorStroke000 svgStroke"></line><path  stroke="#000" stroke-linecap="round" stroke-linejoin="round" stroke-miterlimit="10" stroke-width="1.5" d="
			M20.9,17.8c-0.1-3.5-2.3-4.9-5-4.9s-5,1.4-5,4.9C10.9,20.4,20.9,20.4,20.9,17.8z" class="colorStroke000 svgStroke"></path><circle cx="15.9" cy="8.5" r="2.1"  stroke="#000" stroke-linecap="round" stroke-linejoin="round" stroke-miterlimit="10" stroke-width="1.5" class="colorStroke000 svgStroke"></circle></svg>