<svg xmlns="http://www.w3.org/2000/svg" data-name="Layer 1" viewBox="0 0 128 128" fill="currentColor"><path d="M64 41a14 14 0 1 0-14-14 14.016 14.016 0 0 0 14 14zm0-24a10 10 0 1 1-10 10 10.011 10.011 0 0 1 10-10zM33.387 60.192a5.906 5.906 0 0 0-1.296 4.834l4.092 24.546C36.29 93.132 39.5 96 43.432 96h41.136c3.932 0 7.144-2.867 7.25-6.428l4.086-24.518a5.917 5.917 0 0 0-1.29-4.862A6.117 6.117 0 0 0 89.898 58H38.101a6.12 6.12 0 0 0-4.714 2.192zm58.577 4.177L87.82 89.39c0 1.438-1.459 2.609-3.252 2.609H43.432c-1.793 0-3.252-1.17-3.252-2.61l-4.148-25.05A2.053 2.053 0 0 1 38.1 62h51.798a2.007 2.007 0 0 1 2.065 2.369z"  class="color000 svgShape"></path><path d="M64 83a6 6 0 1 0-6-6 6.007 6.007 0 0 0 6 6zm0-8a2 2 0 1 1-2 2 2.003 2.003 0 0 1 2-2zm32.146-42.412a12.094 12.094 0 0 1 1.751 2.799 9.472 9.472 0 0 1 .705 2.36 3.081 3.081 0 0 0 3.064 2.614h4.668a3.08 3.08 0 0 0 3.063-2.613 9.523 9.523 0 0 1 .689-2.326 11.044 11.044 0 0 1 2.297-3.457 11.01 11.01 0 0 0 3.263-7.816 11.652 11.652 0 0 0-23.291 0 11.31 11.31 0 0 0 3.048 7.587c.259.28.507.563.743.852zM104 16.892a7.468 7.468 0 0 1 7.646 7.257 6.917 6.917 0 0 1-.956 3.473c-.673 1.156-1.734 1.948-2.5 3.025a17.746 17.746 0 0 0-1.77 3.177 13.71 13.71 0 0 0-.83 2.537h-3.18a13.682 13.682 0 0 0-.852-2.588 16.573 16.573 0 0 0-2.282-3.737c-.337-.414-.729-.774-1.086-1.17a7.042 7.042 0 0 1-1.836-4.717A7.468 7.468 0 0 1 104 16.892zm.267-7.04a2 2 0 0 0 2-2V6a2 2 0 0 0-4 0v1.852a2 2 0 0 0 2 2zm-9.808 1.276a2.033 2.033 0 0 0 2.785.492 2 2 0 0 0 .492-2.785l-.943-1.348a2 2 0 0 0-3.277 2.293zm-6.831 5.406 1.371.925a2.027 2.027 0 0 0 2.776-.538 2 2 0 0 0-.538-2.777l-1.37-.926a2 2 0 0 0-2.24 3.316zM86 25.75h1.97a2 2 0 0 0 0-4H86a2 2 0 0 0 0 4zm32.03-2a2 2 0 0 0 2 2H122a2 2 0 0 0 0-4h-1.97a2 2 0 0 0-2 2zm.388-5.963a4.898 4.898 0 0 0 2.488-1.254 2 2 0 0 0-2.238-3.316l-1.371.926a2 2 0 0 0-.538 2.777 2.027 2.027 0 0 0 1.66.867zm-7.13-6.168a2.03 2.03 0 0 0 2.785-.491l.945-1.348a2 2 0 1 0-3.276-2.295l-.944 1.348a2 2 0 0 0 .49 2.786zM101.992 44a2 2 0 0 0 0 4h4a2 2 0 0 0 0-4zM19.864 26.885l-.782 4.793a2 2 0 0 0 2.941 2.073L26 31.552l3.977 2.198a2.058 2.058 0 0 0 2.12-.115 2 2 0 0 0 .821-1.957l-.782-4.793 3.296-3.377a2 2 0 0 0-1.13-3.374l-4.473-.683-2.019-4.3a2 2 0 0 0-3.62 0l-2.02 4.3-4.472.683a2 2 0 0 0-1.13 3.374zm3.966-3.64a2 2 0 0 0 1.508-1.128l.662-1.41.662 1.41a2 2 0 0 0 1.508 1.127l1.68.256-1.282 1.314a2 2 0 0 0-.542 1.719l.281 1.724-1.34-.74a2 2 0 0 0-1.934 0l-1.34.74.281-1.724a2 2 0 0 0-.542-1.719L22.15 23.5zM41 54v-.419C41 44.836 47.264 43 52.519 43h3.272a18.08 18.08 0 0 1-5.106-3.93C42.077 39.722 37 45.04 37 53.581v.48A10.29 10.29 0 0 1 38.1 54zm48.9 0a10.292 10.292 0 0 1 1.1.06v-.479c0-8.54-5.077-13.859-13.685-14.511A18.079 18.079 0 0 1 72.208 43h3.272C80.735 43 87 44.836 87 53.581V54zM122 92H95.477a10.347 10.347 0 0 1-2.125 4H122a2.003 2.003 0 0 1 2 2v2H4v-2a2.002 2.002 0 0 1 2-2h28.654a10.35 10.35 0 0 1-2.125-4H6a6.007 6.007 0 0 0-6 6v4a2 2 0 0 0 2 2h8.963v18a2 2 0 0 0 4 0v-18h4v18a2 2 0 0 0 4 0v-18h82.074v18a2 2 0 0 0 4 0v-18h4v18a2 2 0 0 0 4 0v-18H126a2 2 0 0 0 2-2v-4a6.007 6.007 0 0 0-6-6z"  class="color000 svgShape"></path></svg>